<mxfile host="app.diagrams.net" modified="2023-10-24T20:15:12.693Z" agent="Mozilla/5.0 (Windows NT 10.0; Win64; x64) AppleWebKit/537.36 (KHTML, like Gecko) Chrome/118.0.0.0 Safari/537.36 Edg/118.0.2088.61" etag="KKwHolTyy4VaZmkvpYmN" version="22.0.7" type="onedrive" pages="2">
  <diagram name="Página-1" id="P2hpvSOW3qpmeYRSDR1S">
    <mxGraphModel grid="1" page="1" gridSize="10" guides="1" tooltips="1" connect="1" arrows="1" fold="1" pageScale="1" pageWidth="827" pageHeight="1169" background="#EBCCEB" math="0" shadow="1">
      <root>
        <mxCell id="0" />
        <mxCell id="1" parent="0" />
        <mxCell id="P0AuQnQMJXoMTGdryQzE-1" value="Veiculo" style="swimlane;fontStyle=1;align=center;verticalAlign=top;childLayout=stackLayout;horizontal=1;startSize=26;horizontalStack=0;resizeParent=1;resizeParentMax=0;resizeLast=0;collapsible=1;marginBottom=0;whiteSpace=wrap;html=1;fillColor=#e51400;fontColor=#ffffff;strokeColor=#B20000;" vertex="1" parent="1">
          <mxGeometry x="434" y="162" width="260" height="200" as="geometry" />
        </mxCell>
        <mxCell id="P0AuQnQMJXoMTGdryQzE-2" value="- String placaVeiculo&lt;br&gt;- String chassiVeiculo&lt;br&gt;- int anoVeiculo&lt;br&gt;- Categoria categoriaVeiculo&lt;br&gt;- Unidade unidadeVeiculo" style="text;strokeColor=none;fillColor=none;align=left;verticalAlign=top;spacingLeft=4;spacingRight=4;overflow=hidden;rotatable=0;points=[[0,0.5],[1,0.5]];portConstraint=eastwest;whiteSpace=wrap;html=1;" vertex="1" parent="P0AuQnQMJXoMTGdryQzE-1">
          <mxGeometry y="26" width="260" height="80" as="geometry" />
        </mxCell>
        <mxCell id="P0AuQnQMJXoMTGdryQzE-3" value="" style="line;strokeWidth=1;fillColor=none;align=left;verticalAlign=middle;spacingTop=-1;spacingLeft=3;spacingRight=3;rotatable=0;labelPosition=right;points=[];portConstraint=eastwest;strokeColor=inherit;" vertex="1" parent="P0AuQnQMJXoMTGdryQzE-1">
          <mxGeometry y="106" width="260" height="8" as="geometry" />
        </mxCell>
        <mxCell id="P0AuQnQMJXoMTGdryQzE-4" value="+ constructor()&lt;br style=&quot;border-color: var(--border-color);&quot;&gt;+ toString(): String&lt;br&gt;+ getPlacaVeiculo(): String&lt;br&gt;+&amp;nbsp;setUnidadeVeiculo(Unidade unidadeVeiculo): void" style="text;strokeColor=none;fillColor=none;align=left;verticalAlign=top;spacingLeft=4;spacingRight=4;overflow=hidden;rotatable=0;points=[[0,0.5],[1,0.5]];portConstraint=eastwest;whiteSpace=wrap;html=1;" vertex="1" parent="P0AuQnQMJXoMTGdryQzE-1">
          <mxGeometry y="114" width="260" height="86" as="geometry" />
        </mxCell>
        <mxCell id="P0AuQnQMJXoMTGdryQzE-6" value="Categoria" style="swimlane;fontStyle=1;align=center;verticalAlign=top;childLayout=stackLayout;horizontal=1;startSize=26;horizontalStack=0;resizeParent=1;resizeParentMax=0;resizeLast=0;collapsible=1;marginBottom=0;whiteSpace=wrap;html=1;fillColor=#d80073;strokeColor=#A50040;fontColor=#ffffff;" vertex="1" parent="1">
          <mxGeometry x="447" y="462" width="220" height="150" as="geometry">
            <mxRectangle x="447" y="462" width="100" height="30" as="alternateBounds" />
          </mxGeometry>
        </mxCell>
        <mxCell id="P0AuQnQMJXoMTGdryQzE-7" value="- String nomeDaCategoria&lt;br&gt;- double valorDiaria" style="text;strokeColor=none;fillColor=none;align=left;verticalAlign=top;spacingLeft=4;spacingRight=4;overflow=hidden;rotatable=0;points=[[0,0.5],[1,0.5]];portConstraint=eastwest;whiteSpace=wrap;html=1;" vertex="1" parent="P0AuQnQMJXoMTGdryQzE-6">
          <mxGeometry y="26" width="220" height="44" as="geometry" />
        </mxCell>
        <mxCell id="P0AuQnQMJXoMTGdryQzE-8" value="" style="line;strokeWidth=1;fillColor=none;align=left;verticalAlign=middle;spacingTop=-1;spacingLeft=3;spacingRight=3;rotatable=0;labelPosition=right;points=[];portConstraint=eastwest;strokeColor=inherit;" vertex="1" parent="P0AuQnQMJXoMTGdryQzE-6">
          <mxGeometry y="70" width="220" height="8" as="geometry" />
        </mxCell>
        <mxCell id="P0AuQnQMJXoMTGdryQzE-9" value="+ constructor()&lt;br style=&quot;border-color: var(--border-color);&quot;&gt;+ toString(): String&lt;br&gt;+ getNomeDaCategoria(): String&lt;br&gt;+calculaTotalDiarias(int dias)&lt;span style=&quot;background-color: initial;&quot;&gt;: double&lt;/span&gt;" style="text;strokeColor=none;fillColor=none;align=left;verticalAlign=top;spacingLeft=4;spacingRight=4;overflow=hidden;rotatable=0;points=[[0,0.5],[1,0.5]];portConstraint=eastwest;whiteSpace=wrap;html=1;" vertex="1" parent="P0AuQnQMJXoMTGdryQzE-6">
          <mxGeometry y="78" width="220" height="72" as="geometry" />
        </mxCell>
        <mxCell id="P0AuQnQMJXoMTGdryQzE-10" value="Unidade" style="swimlane;fontStyle=1;align=center;verticalAlign=top;childLayout=stackLayout;horizontal=1;startSize=26;horizontalStack=0;resizeParent=1;resizeParentMax=0;resizeLast=0;collapsible=1;marginBottom=0;whiteSpace=wrap;html=1;fillColor=#0050ef;fontColor=#ffffff;strokeColor=#001DBC;" vertex="1" parent="1">
          <mxGeometry x="88" y="145" width="220" height="280" as="geometry" />
        </mxCell>
        <mxCell id="P0AuQnQMJXoMTGdryQzE-11" value="- String endereco&lt;br&gt;- String telefone&lt;br&gt;- String contato&lt;br&gt;- String eMail&lt;br&gt;- Veiculo[] veiculos&lt;br&gt;- int totalVeiculos&lt;br&gt;- int capMaxVeiculos" style="text;strokeColor=none;fillColor=none;align=left;verticalAlign=top;spacingLeft=4;spacingRight=4;overflow=hidden;rotatable=0;points=[[0,0.5],[1,0.5]];portConstraint=eastwest;whiteSpace=wrap;html=1;" vertex="1" parent="P0AuQnQMJXoMTGdryQzE-10">
          <mxGeometry y="26" width="220" height="114" as="geometry" />
        </mxCell>
        <mxCell id="P0AuQnQMJXoMTGdryQzE-12" value="" style="line;strokeWidth=1;fillColor=none;align=left;verticalAlign=middle;spacingTop=-1;spacingLeft=3;spacingRight=3;rotatable=0;labelPosition=right;points=[];portConstraint=eastwest;strokeColor=inherit;" vertex="1" parent="P0AuQnQMJXoMTGdryQzE-10">
          <mxGeometry y="140" width="220" height="8" as="geometry" />
        </mxCell>
        <mxCell id="P0AuQnQMJXoMTGdryQzE-13" value="+ constructor()&lt;br&gt;+ addVeiculo(Veiculo v): void&lt;br&gt;+ getEndereco(): String&lt;br&gt;+ getVeiculo(String placa): int&lt;br&gt;+ printVeiculosUnidade():void&lt;br&gt;+ removeVeiculo(String placa): boolean&lt;br&gt;+ toString(): String" style="text;strokeColor=none;fillColor=none;align=left;verticalAlign=top;spacingLeft=4;spacingRight=4;overflow=hidden;rotatable=0;points=[[0,0.5],[1,0.5]];portConstraint=eastwest;whiteSpace=wrap;html=1;" vertex="1" parent="P0AuQnQMJXoMTGdryQzE-10">
          <mxGeometry y="148" width="220" height="132" as="geometry" />
        </mxCell>
        <mxCell id="P0AuQnQMJXoMTGdryQzE-15" style="edgeStyle=none;rounded=0;orthogonalLoop=1;jettySize=auto;html=1;exitX=1;exitY=0.5;exitDx=0;exitDy=0;entryX=0;entryY=0.5;entryDx=0;entryDy=0;endArrow=none;endFill=0;" edge="1" parent="1" source="P0AuQnQMJXoMTGdryQzE-11" target="P0AuQnQMJXoMTGdryQzE-2">
          <mxGeometry relative="1" as="geometry" />
        </mxCell>
        <mxCell id="P0AuQnQMJXoMTGdryQzE-16" style="edgeStyle=none;rounded=0;orthogonalLoop=1;jettySize=auto;html=1;endArrow=none;endFill=0;entryX=0.537;entryY=-0.026;entryDx=0;entryDy=0;entryPerimeter=0;" edge="1" parent="1" source="P0AuQnQMJXoMTGdryQzE-4" target="P0AuQnQMJXoMTGdryQzE-6">
          <mxGeometry relative="1" as="geometry">
            <mxPoint x="567" y="452" as="targetPoint" />
          </mxGeometry>
        </mxCell>
        <mxCell id="P0AuQnQMJXoMTGdryQzE-17" value="0..*" style="text;html=1;strokeColor=none;fillColor=none;align=center;verticalAlign=middle;whiteSpace=wrap;rounded=0;" vertex="1" parent="1">
          <mxGeometry x="390" y="202" width="60" height="30" as="geometry" />
        </mxCell>
        <mxCell id="P0AuQnQMJXoMTGdryQzE-21" value="1" style="text;html=1;strokeColor=none;fillColor=none;align=center;verticalAlign=middle;whiteSpace=wrap;rounded=0;" vertex="1" parent="1">
          <mxGeometry x="290" y="202" width="60" height="30" as="geometry" />
        </mxCell>
        <mxCell id="P0AuQnQMJXoMTGdryQzE-22" value="1" style="text;html=1;strokeColor=none;fillColor=none;align=center;verticalAlign=middle;whiteSpace=wrap;rounded=0;" vertex="1" parent="1">
          <mxGeometry x="550" y="432" width="60" height="30" as="geometry" />
        </mxCell>
        <mxCell id="P0AuQnQMJXoMTGdryQzE-23" value="1..*" style="text;html=1;strokeColor=none;fillColor=none;align=center;verticalAlign=middle;whiteSpace=wrap;rounded=0;" vertex="1" parent="1">
          <mxGeometry x="565" y="362" width="30" height="30" as="geometry" />
        </mxCell>
        <mxCell id="azOXNy-KbACVUyRHwZ7o-1" value="PACKAGE LOCADORA&lt;br style=&quot;font-size: 23px;&quot;&gt;" style="text;strokeColor=none;align=center;fillColor=none;html=1;verticalAlign=top;whiteSpace=wrap;rounded=0;fontStyle=1;fontSize=23;labelBorderColor=#FFFFFF;labelBackgroundColor=default;fontColor=#FF91DA;fontFamily=Lucida Console;" vertex="1" parent="1">
          <mxGeometry x="270" y="20" width="270" height="40" as="geometry" />
        </mxCell>
        <mxCell id="azOXNy-KbACVUyRHwZ7o-5" value="" style="verticalLabelPosition=bottom;verticalAlign=top;html=1;shape=mxgraph.basic.smiley;fillColor=#ffff88;strokeColor=#36393d;" vertex="1" parent="1">
          <mxGeometry x="240" y="25" width="30" height="30" as="geometry" />
        </mxCell>
      </root>
    </mxGraphModel>
  </diagram>
  <diagram id="N_qnSfwSvaj9MOTGR0hJ" name="Página-2">
    <mxGraphModel dx="1034" dy="478" grid="1" gridSize="10" guides="1" tooltips="1" connect="1" arrows="1" fold="1" page="1" pageScale="1" pageWidth="827" pageHeight="1169" math="0" shadow="0">
      <root>
        <mxCell id="0" />
        <mxCell id="1" parent="0" />
        <mxCell id="0QthzrogVL3aHqra3Ag6-1" value="draw.io" style="text;html=1;strokeColor=none;fillColor=none;align=center;verticalAlign=middle;whiteSpace=wrap;rounded=0;fontSize=28;" parent="1" vertex="1">
          <mxGeometry x="60" y="10" width="60" height="30" as="geometry" />
        </mxCell>
        <mxCell id="0QthzrogVL3aHqra3Ag6-2" value="Veiculo" style="swimlane;fontStyle=1;align=center;verticalAlign=top;childLayout=stackLayout;horizontal=1;startSize=26;horizontalStack=0;resizeParent=1;resizeParentMax=0;resizeLast=0;collapsible=1;marginBottom=0;whiteSpace=wrap;html=1;" parent="1" vertex="1">
          <mxGeometry x="254" y="120" width="160" height="190" as="geometry" />
        </mxCell>
        <mxCell id="0QthzrogVL3aHqra3Ag6-3" value="- placa: String&lt;br&gt;- chassi: String&lt;br&gt;- anoModelo: int&lt;br&gt;- categoria: Categoria&lt;br&gt;- unidade: Unidade" style="text;strokeColor=none;fillColor=none;align=left;verticalAlign=top;spacingLeft=4;spacingRight=4;overflow=hidden;rotatable=0;points=[[0,0.5],[1,0.5]];portConstraint=eastwest;whiteSpace=wrap;html=1;" parent="0QthzrogVL3aHqra3Ag6-2" vertex="1">
          <mxGeometry y="26" width="160" height="84" as="geometry" />
        </mxCell>
        <mxCell id="0QthzrogVL3aHqra3Ag6-4" value="" style="line;strokeWidth=1;fillColor=none;align=left;verticalAlign=middle;spacingTop=-1;spacingLeft=3;spacingRight=3;rotatable=0;labelPosition=right;points=[];portConstraint=eastwest;strokeColor=inherit;" parent="0QthzrogVL3aHqra3Ag6-2" vertex="1">
          <mxGeometry y="110" width="160" height="8" as="geometry" />
        </mxCell>
        <mxCell id="0QthzrogVL3aHqra3Ag6-5" value="+ cadastrarVeiculo(): void&lt;br&gt;+ consultarVeiculo(): void&lt;br&gt;+ atualizarVeiculo(): void&lt;br&gt;+ removerVeiculo(): void" style="text;strokeColor=none;fillColor=none;align=left;verticalAlign=top;spacingLeft=4;spacingRight=4;overflow=hidden;rotatable=0;points=[[0,0.5],[1,0.5]];portConstraint=eastwest;whiteSpace=wrap;html=1;" parent="0QthzrogVL3aHqra3Ag6-2" vertex="1">
          <mxGeometry y="118" width="160" height="72" as="geometry" />
        </mxCell>
        <mxCell id="0QthzrogVL3aHqra3Ag6-6" value="Categoria" style="swimlane;fontStyle=1;align=center;verticalAlign=top;childLayout=stackLayout;horizontal=1;startSize=26;horizontalStack=0;resizeParent=1;resizeParentMax=0;resizeLast=0;collapsible=1;marginBottom=0;whiteSpace=wrap;html=1;" parent="1" vertex="1">
          <mxGeometry x="480" y="130" width="160" height="124" as="geometry" />
        </mxCell>
        <mxCell id="0QthzrogVL3aHqra3Ag6-7" value="- nome: String&lt;br&gt;- valorDiaria: float" style="text;strokeColor=none;fillColor=none;align=left;verticalAlign=top;spacingLeft=4;spacingRight=4;overflow=hidden;rotatable=0;points=[[0,0.5],[1,0.5]];portConstraint=eastwest;whiteSpace=wrap;html=1;" parent="0QthzrogVL3aHqra3Ag6-6" vertex="1">
          <mxGeometry y="26" width="160" height="64" as="geometry" />
        </mxCell>
        <mxCell id="0QthzrogVL3aHqra3Ag6-8" value="" style="line;strokeWidth=1;fillColor=none;align=left;verticalAlign=middle;spacingTop=-1;spacingLeft=3;spacingRight=3;rotatable=0;labelPosition=right;points=[];portConstraint=eastwest;strokeColor=inherit;" parent="0QthzrogVL3aHqra3Ag6-6" vertex="1">
          <mxGeometry y="90" width="160" height="8" as="geometry" />
        </mxCell>
        <mxCell id="0QthzrogVL3aHqra3Ag6-9" value="+ calcularDiaria(): float" style="text;strokeColor=none;fillColor=none;align=left;verticalAlign=top;spacingLeft=4;spacingRight=4;overflow=hidden;rotatable=0;points=[[0,0.5],[1,0.5]];portConstraint=eastwest;whiteSpace=wrap;html=1;" parent="0QthzrogVL3aHqra3Ag6-6" vertex="1">
          <mxGeometry y="98" width="160" height="26" as="geometry" />
        </mxCell>
        <mxCell id="0QthzrogVL3aHqra3Ag6-10" value="Unidade" style="swimlane;fontStyle=1;align=center;verticalAlign=top;childLayout=stackLayout;horizontal=1;startSize=26;horizontalStack=0;resizeParent=1;resizeParentMax=0;resizeLast=0;collapsible=1;marginBottom=0;whiteSpace=wrap;html=1;" parent="1" vertex="1">
          <mxGeometry x="30" y="120" width="160" height="150" as="geometry" />
        </mxCell>
        <mxCell id="0QthzrogVL3aHqra3Ag6-11" value="- endereco: String&lt;br&gt;- telefone: String&lt;br&gt;- contato: String&lt;br&gt;- email: String&lt;br&gt;- veiculos[]: Veiculo" style="text;strokeColor=none;fillColor=none;align=left;verticalAlign=top;spacingLeft=4;spacingRight=4;overflow=hidden;rotatable=0;points=[[0,0.5],[1,0.5]];portConstraint=eastwest;whiteSpace=wrap;html=1;" parent="0QthzrogVL3aHqra3Ag6-10" vertex="1">
          <mxGeometry y="26" width="160" height="84" as="geometry" />
        </mxCell>
        <mxCell id="0QthzrogVL3aHqra3Ag6-12" value="" style="line;strokeWidth=1;fillColor=none;align=left;verticalAlign=middle;spacingTop=-1;spacingLeft=3;spacingRight=3;rotatable=0;labelPosition=right;points=[];portConstraint=eastwest;strokeColor=inherit;" parent="0QthzrogVL3aHqra3Ag6-10" vertex="1">
          <mxGeometry y="110" width="160" height="8" as="geometry" />
        </mxCell>
        <mxCell id="0QthzrogVL3aHqra3Ag6-13" value="+ cadastrarUnidade()" style="text;strokeColor=none;fillColor=none;align=left;verticalAlign=top;spacingLeft=4;spacingRight=4;overflow=hidden;rotatable=0;points=[[0,0.5],[1,0.5]];portConstraint=eastwest;whiteSpace=wrap;html=1;" parent="0QthzrogVL3aHqra3Ag6-10" vertex="1">
          <mxGeometry y="118" width="160" height="32" as="geometry" />
        </mxCell>
        <mxCell id="0QthzrogVL3aHqra3Ag6-14" style="edgeStyle=orthogonalEdgeStyle;rounded=0;orthogonalLoop=1;jettySize=auto;html=1;endArrow=none;endFill=0;" parent="1" source="0QthzrogVL3aHqra3Ag6-11" target="0QthzrogVL3aHqra3Ag6-3" edge="1">
          <mxGeometry relative="1" as="geometry" />
        </mxCell>
        <mxCell id="0QthzrogVL3aHqra3Ag6-16" style="edgeStyle=orthogonalEdgeStyle;rounded=0;orthogonalLoop=1;jettySize=auto;html=1;endArrow=none;endFill=0;" parent="1" source="0QthzrogVL3aHqra3Ag6-3" target="0QthzrogVL3aHqra3Ag6-7" edge="1">
          <mxGeometry relative="1" as="geometry" />
        </mxCell>
        <mxCell id="0QthzrogVL3aHqra3Ag6-17" value="1" style="text;html=1;strokeColor=none;fillColor=none;align=center;verticalAlign=middle;whiteSpace=wrap;rounded=0;" parent="1" vertex="1">
          <mxGeometry x="190" y="175" width="20" height="10" as="geometry" />
        </mxCell>
        <mxCell id="0QthzrogVL3aHqra3Ag6-19" value="1..*" style="text;html=1;strokeColor=none;fillColor=none;align=center;verticalAlign=middle;whiteSpace=wrap;rounded=0;" parent="1" vertex="1">
          <mxGeometry x="231" y="175" width="20" height="10" as="geometry" />
        </mxCell>
        <mxCell id="0QthzrogVL3aHqra3Ag6-21" value="1" style="text;html=1;strokeColor=none;fillColor=none;align=center;verticalAlign=middle;whiteSpace=wrap;rounded=0;" parent="1" vertex="1">
          <mxGeometry x="460" y="175" width="20" height="10" as="geometry" />
        </mxCell>
        <mxCell id="0QthzrogVL3aHqra3Ag6-22" value="1..*" style="text;html=1;strokeColor=none;fillColor=none;align=center;verticalAlign=middle;whiteSpace=wrap;rounded=0;" parent="1" vertex="1">
          <mxGeometry x="419" y="174" width="20" height="10" as="geometry" />
        </mxCell>
      </root>
    </mxGraphModel>
  </diagram>
</mxfile>
